<!DOCTYPE svg PUBLIC "-//W3C//DTD SVG 1.1//EN" "http://www.w3.org/Graphics/SVG/1.1/DTD/svg11.dtd">
<!-- Uploaded to: SVG Repo, www.svgrepo.com, Transformed by: SVG Repo Mixer Tools -->
<svg fill="#000000" width="800px" height="800px" viewBox="0 0 24 24" id="dna-3" data-name="Line Color" xmlns="http://www.w3.org/2000/svg" class="icon line-color">
<g id="SVGRepo_bgCarrier" stroke-width="0"/>
<g id="SVGRepo_tracerCarrier" stroke-linecap="round" stroke-linejoin="round"/>
<g id="SVGRepo_iconCarrier">
<path id="secondary" d="M16,3h0c0,1.84-1.73,3.58-2.64,4.18s-3.55,2-3.55,2A3.2,3.2,0,0,0,8,12H8a3.2,3.2,0,0,0,1.81,2.86s2.64,1.37,3.55,2S16,19.16,16,21h0" style="fill: none; stroke: #7DB0A6; stroke-linecap: round; stroke-linejoin: round; stroke-width: 2;"/>
<path id="primary" d="M8,21H8c0-1.84,1.73-3.58,2.64-4.18s3.55-2,3.55-2A3.2,3.2,0,0,0,16,12h0a3.2,3.2,0,0,0-1.81-2.86s-2.64-1.37-3.55-2S8,4.84,8,3H8" style="fill: none; stroke: #ffffff; stroke-linecap: round; stroke-linejoin: round; stroke-width: 2;"/>
</g>
</svg>